# xmcd CD database file
#
# Track frame offsets:
#	150
#	14063
#	30995
#	45490
#	75448
#	93359
#	113467
#	144799
#	165163
#	183147
#	209299
#	213892
#	243443
#
# Disc length: 3480 seconds
#
# Revision: 0
# Processed by: cddbd v1.5PL3 Copyright (c) Steve Scherf et al.
# Submitted via: CDex 1.40Release
#
DISCID=8e0d960d
DTITLE=Big Daddy Wilson and Missisippi Grave Diggers - Get On Your Knees And Pray
DYEAR=2003
DGENRE=Blues
TTITLE0=san francisco bay
TTITLE1=hand it over
TTITLE2=hard times
TTITLE3=help me
TTITLE4=railroad worksong
TTITLE5=you can live yourself
TTITLE6=summertime
TTITLE7=swing low
TTITLE8=big boss man
TTITLE9=tell ol' bill
TTITLE10=intro
TTITLE11=summertime remix
TTITLE12=railroad worksong remix
EXTD=YEAR: 2003 ID3G: 0
EXTT0=
EXTT1=
EXTT2=
EXTT3=
EXTT4=
EXTT5=
EXTT6=
EXTT7=
EXTT8=
EXTT9=
EXTT10=
EXTT11=
EXTT12=
PLAYORDER=
